# xmcd CD database file
# Copyright (C) 1993-1998 Ti Kan
#
# Track frame offsets:
#	182
#	11385
#	25302
#	38557
#	50350
#	63602
#	75507
#	89182
#	100310
#	115630
#
# Disc length: 1677 seconds
#
# Revision: 2
# Processed by: cddbd v1.4PL0 Copyright (c) Steve Scherf et al.
# Submitted via: Gronk 1.4
#
DISCID=75068b0a
DTITLE=Conway Twitty - Legendary Hits
DYEAR=1900
DGENRE=country
TTITLE0=Hello Darlin'
TTITLE1=Fifteen Years Ago
TTITLE2=After All The Good Is Gone
TTITLE3=Linda On My Mind
TTITLE4=Danny Boy
TTITLE5=She Needs Someone To Hold Her (When She Cries)
TTITLE6=Baby's Gone
TTITLE7=It's Only Make Believe
TTITLE8=Touch The Hand
TTITLE9=I Can't Beleive She Gives It All to Me
EXTD=
EXTT0=
EXTT1=
EXTT2=
EXTT3=
EXTT4=
EXTT5=
EXTT6=
EXTT7=
EXTT8=
EXTT9=
PLAYORDER=
